<!DOCTYPE svg PUBLIC "-//W3C//DTD SVG 20010904//EN" "http://www.w3.org/TR/2001/REC-SVG-20010904/DTD/svg10.dtd">
<svg version="1.0" xmlns="http://www.w3.org/2000/svg" width="500px" height="500px" viewBox="0 0 5000 5000" preserveAspectRatio="xMidYMid meet">
<g id="layer101" fill="#8e73c8" stroke="none">
 <path d="M960 3470 c0 -11 5 -20 10 -20 15 0 12 -38 -9 -107 l-19 -63 29 0 c21 0 32 6 39 23 l9 22 0 -22 c1 -19 7 -23 31 -23 17 0 30 3 30 6 0 10 -40 146 -52 177 -8 21 -17 27 -39 27 -22 0 -29 -5 -29 -20z"/>
 <path d="M4696 3481 c-4 -5 -3 -17 0 -26 5 -12 14 -14 35 -10 18 4 29 2 29 -4 0 -6 -13 -11 -30 -11 -35 0 -50 -23 -50 -75 0 -63 13 -75 80 -75 l60 0 0 83 c0 105 -13 127 -75 127 -24 0 -46 -4 -49 -9z m64 -126 c0 -19 -4 -35 -10 -35 -5 0 -10 16 -10 35 0 19 5 35 10 35 6 0 10 -16 10 -35z"/>
 <path d="M370 3325 l0 -105 58 0 c32 0 63 5 70 12 15 15 16 90 1 105 -7 7 -6 21 5 48 20 48 21 45 -15 45 -25 0 -33 -6 -47 -37 l-17 -38 -3 38 c-3 32 -7 37 -28 37 -24 0 -24 0 -24 -105z m80 -20 c15 -18 6 -45 -15 -45 -10 0 -15 10 -15 30 0 33 11 38 30 15z"/>
 <path d="M670 3320 l0 -110 25 0 c22 0 25 4 25 35 0 32 3 35 28 35 42 0 52 17 52 87 l0 63 -30 0 c-30 0 -30 0 -30 -56 0 -34 -4 -53 -10 -49 -5 3 -10 28 -10 56 0 46 -2 49 -25 49 l-25 0 0 -110z"/>
 <path d="M1247 3423 c-4 -3 -7 -30 -7 -60 0 -29 -4 -53 -10 -53 -5 0 -10 -7 -10 -15 0 -8 5 -15 10 -15 6 0 10 -9 10 -20 0 -15 7 -20 25 -20 18 0 25 5 25 20 0 11 5 20 10 20 6 0 10 7 10 15 0 8 -4 15 -10 15 -5 0 -10 18 -10 40 0 22 5 40 10 40 6 0 10 9 10 20 0 15 -7 20 -28 20 -16 0 -32 -3 -35 -7z"/>
 <path d="M1460 3320 l0 -110 30 0 c28 0 30 3 30 35 0 32 3 35 29 35 35 0 41 13 41 91 0 56 -1 59 -25 59 -23 0 -25 -3 -25 -49 0 -28 -4 -53 -10 -56 -6 -4 -10 15 -10 49 0 56 0 56 -30 56 l-30 0 0 -110z"/>
 <path d="M1750 3355 l0 -75 90 0 c104 0 110 5 110 94 0 55 0 56 -30 56 -28 0 -29 -1 -33 -57 l-3 -58 -2 58 c-2 56 -2 57 -32 57 -30 0 -30 -1 -30 -55 0 -30 -4 -55 -10 -55 -5 0 -10 25 -10 55 0 52 -1 55 -25 55 -24 0 -25 -2 -25 -75z"/>
 <path d="M2110 3355 c0 -73 1 -75 25 -75 24 0 25 2 25 75 0 73 -1 75 -25 75 -24 0 -25 -2 -25 -75z"/>
 <path d="M2330 3411 c-5 -11 -10 -36 -10 -56 0 -59 14 -75 65 -75 34 0 47 5 55 19 16 32 12 41 -20 41 -16 0 -30 -5 -30 -11 0 -5 -4 -7 -10 -4 -13 8 -13 52 -1 60 5 3 12 1 16 -5 8 -13 55 -13 55 1 0 32 -22 49 -65 49 -34 0 -47 -5 -55 -19z"/>
 <path d="M2810 3325 l0 -105 30 0 30 0 0 85 0 85 35 0 c28 0 35 4 35 20 0 18 -7 20 -65 20 l-65 0 0 -105z"/>
 <path d="M3106 3414 c-10 -9 -16 -33 -16 -59 0 -54 19 -75 69 -75 46 0 61 14 61 57 0 31 -2 33 -35 33 -19 0 -35 5 -35 11 0 7 11 9 29 6 29 -6 49 13 35 34 -9 15 -91 10 -108 -7z"/>
 <path d="M3382 3418 c-29 -29 -7 -78 35 -78 13 0 23 -4 23 -10 0 -5 -16 -10 -35 -10 -33 0 -35 -2 -25 -20 8 -15 21 -20 55 -20 54 0 65 16 65 94 l0 56 -53 0 c-29 0 -58 -5 -65 -12z"/>
 <path d="M3660 3355 l0 -75 45 0 c41 0 45 2 45 25 0 18 -5 25 -20 25 -17 0 -20 7 -20 50 0 47 -2 50 -25 50 -24 0 -25 -2 -25 -75z"/>
 <path d="M3890 3355 l0 -76 63 3 62 3 3 73 c3 71 3 72 -23 72 -24 0 -25 -3 -25 -55 0 -30 -4 -55 -10 -55 -5 0 -10 25 -10 55 0 54 0 55 -30 55 l-30 0 0 -75z"/>
 <path d="M4180 3355 l0 -75 30 0 30 0 0 75 0 75 -30 0 -30 0 0 -75z"/>
 <path d="M4400 3355 l0 -75 55 0 c65 0 75 12 75 94 0 56 0 56 -30 56 -30 0 -30 -1 -30 -55 0 -30 -4 -55 -10 -55 -5 0 -10 25 -10 55 0 52 -1 55 -25 55 -24 0 -25 -2 -25 -75z"/>
 <path d="M2112 3238 c2 -15 10 -23 23 -23 13 0 21 8 23 23 3 18 -1 22 -23 22 -22 0 -26 -4 -23 -22z"/>
 <path d="M4183 3244 c-3 -8 -1 -20 5 -26 16 -16 47 -5 50 20 3 18 -1 22 -23 22 -14 0 -28 -7 -32 -16z"/>
 <path d="M2315 3133 c-195 -41 -325 -113 -470 -258 -67 -67 -116 -127 -147 -180 -141 -238 -167 -536 -72 -810 81 -231 318 -468 549 -549 274 -95 572 -69 810 72 108 64 263 219 327 327 141 238 167 536 72 810 -81 231 -318 468 -549 549 -162 56 -368 72 -520 39z m430 -84 c161 -49 284 -126 400 -251 149 -162 226 -359 226 -583 0 -164 -43 -318 -128 -460 -47 -77 -201 -231 -278 -278 -142 -85 -296 -128 -460 -128 -164 0 -318 43 -460 128 -77 47 -231 201 -278 278 -85 142 -128 296 -128 460 0 224 77 421 226 583 116 125 239 202 401 252 138 41 340 41 479 -1z"/>
 <path d="M1990 2720 c-19 -19 -20 -33 -20 -327 0 -170 4 -313 8 -319 10 -15 47 -34 67 -34 9 0 27 11 40 25 l25 24 0 301 0 301 -25 24 c-29 30 -68 32 -95 5z"/>
 <path d="M2230 2720 c-19 -19 -20 -33 -20 -500 0 -467 1 -481 20 -500 29 -29 74 -26 99 6 21 26 21 36 21 494 0 458 0 468 -21 494 -25 32 -70 35 -99 6z"/>
 <path d="M2471 2714 c-20 -26 -21 -38 -21 -396 l0 -369 25 -24 c13 -14 33 -25 45 -25 12 0 32 11 45 25 l25 24 0 369 c0 358 -1 370 -21 396 -13 17 -30 26 -49 26 -19 0 -36 -9 -49 -26z"/>
 <path d="M2701 2714 c-20 -25 -21 -39 -21 -246 l0 -219 25 -24 c13 -14 34 -25 45 -25 12 0 32 11 45 25 l25 24 0 226 c0 212 -1 226 -20 245 -29 29 -74 26 -99 -6z"/>
 <path d="M2955 2715 l-25 -24 0 -371 0 -371 25 -24 c29 -30 68 -32 95 -5 19 19 20 33 20 400 0 367 -1 381 -20 400 -27 27 -66 25 -95 -5z"/>
 </g>
<g id="layer102" fill="#71ceff" stroke="none">
 <path d="M960 3470 c0 -11 5 -20 10 -20 15 0 12 -38 -9 -107 l-19 -63 29 0 c21 0 32 6 39 23 l9 22 0 -22 c1 -19 7 -23 31 -23 17 0 30 3 30 6 0 10 -40 146 -52 177 -8 21 -17 27 -39 27 -22 0 -29 -5 -29 -20z"/>
 <path d="M4696 3481 c-4 -5 -3 -17 0 -26 5 -12 14 -14 35 -10 18 4 29 2 29 -4 0 -6 -13 -11 -30 -11 -35 0 -50 -23 -50 -75 0 -63 13 -75 80 -75 l60 0 0 83 c0 105 -13 127 -75 127 -24 0 -46 -4 -49 -9z m64 -126 c0 -19 -4 -35 -10 -35 -5 0 -10 16 -10 35 0 19 5 35 10 35 6 0 10 -16 10 -35z"/>
 <path d="M370 3325 l0 -105 58 0 c32 0 63 5 70 12 15 15 16 90 1 105 -7 7 -6 21 5 48 20 48 21 45 -15 45 -25 0 -33 -6 -47 -37 l-17 -38 -3 38 c-3 32 -7 37 -28 37 -24 0 -24 0 -24 -105z m80 -20 c15 -18 6 -45 -15 -45 -10 0 -15 10 -15 30 0 33 11 38 30 15z"/>
 <path d="M670 3320 l0 -110 25 0 c22 0 25 4 25 35 0 32 3 35 28 35 42 0 52 17 52 87 l0 63 -30 0 c-30 0 -30 0 -30 -56 0 -34 -4 -53 -10 -49 -5 3 -10 28 -10 56 0 46 -2 49 -25 49 l-25 0 0 -110z"/>
 <path d="M1247 3423 c-4 -3 -7 -30 -7 -60 0 -29 -4 -53 -10 -53 -5 0 -10 -7 -10 -15 0 -8 5 -15 10 -15 6 0 10 -9 10 -20 0 -15 7 -20 25 -20 18 0 25 5 25 20 0 11 5 20 10 20 6 0 10 7 10 15 0 8 -4 15 -10 15 -5 0 -10 18 -10 40 0 22 5 40 10 40 6 0 10 9 10 20 0 15 -7 20 -28 20 -16 0 -32 -3 -35 -7z"/>
 <path d="M1460 3320 l0 -110 30 0 c28 0 30 3 30 35 0 32 3 35 29 35 35 0 41 13 41 91 0 56 -1 59 -25 59 -23 0 -25 -3 -25 -49 0 -28 -4 -53 -10 -56 -6 -4 -10 15 -10 49 0 56 0 56 -30 56 l-30 0 0 -110z"/>
 <path d="M1750 3355 l0 -75 90 0 c104 0 110 5 110 94 0 55 0 56 -30 56 -28 0 -29 -1 -33 -57 l-3 -58 -2 58 c-2 56 -2 57 -32 57 -30 0 -30 -1 -30 -55 0 -30 -4 -55 -10 -55 -5 0 -10 25 -10 55 0 52 -1 55 -25 55 -24 0 -25 -2 -25 -75z"/>
 <path d="M2110 3355 c0 -73 1 -75 25 -75 24 0 25 2 25 75 0 73 -1 75 -25 75 -24 0 -25 -2 -25 -75z"/>
 <path d="M2330 3411 c-5 -11 -10 -36 -10 -56 0 -59 14 -75 65 -75 34 0 47 5 55 19 16 32 12 41 -20 41 -16 0 -30 -5 -30 -11 0 -5 -4 -7 -10 -4 -13 8 -13 52 -1 60 5 3 12 1 16 -5 8 -13 55 -13 55 1 0 32 -22 49 -65 49 -34 0 -47 -5 -55 -19z"/>
 <path d="M2810 3325 l0 -105 30 0 30 0 0 85 0 85 35 0 c28 0 35 4 35 20 0 18 -7 20 -65 20 l-65 0 0 -105z"/>
 <path d="M3106 3414 c-10 -9 -16 -33 -16 -59 0 -54 19 -75 69 -75 46 0 61 14 61 57 0 31 -2 33 -35 33 -19 0 -35 5 -35 11 0 7 11 9 29 6 29 -6 49 13 35 34 -9 15 -91 10 -108 -7z"/>
 <path d="M3382 3418 c-29 -29 -7 -78 35 -78 13 0 23 -4 23 -10 0 -5 -16 -10 -35 -10 -33 0 -35 -2 -25 -20 8 -15 21 -20 55 -20 54 0 65 16 65 94 l0 56 -53 0 c-29 0 -58 -5 -65 -12z"/>
 <path d="M3660 3355 l0 -75 45 0 c41 0 45 2 45 25 0 18 -5 25 -20 25 -17 0 -20 7 -20 50 0 47 -2 50 -25 50 -24 0 -25 -2 -25 -75z"/>
 <path d="M3890 3355 l0 -76 63 3 62 3 3 73 c3 71 3 72 -23 72 -24 0 -25 -3 -25 -55 0 -30 -4 -55 -10 -55 -5 0 -10 25 -10 55 0 54 0 55 -30 55 l-30 0 0 -75z"/>
 <path d="M4180 3355 l0 -75 30 0 30 0 0 75 0 75 -30 0 -30 0 0 -75z"/>
 <path d="M4400 3355 l0 -75 55 0 c65 0 75 12 75 94 0 56 0 56 -30 56 -30 0 -30 -1 -30 -55 0 -30 -4 -55 -10 -55 -5 0 -10 25 -10 55 0 52 -1 55 -25 55 -24 0 -25 -2 -25 -75z"/>
 <path d="M2112 3238 c2 -15 10 -23 23 -23 13 0 21 8 23 23 3 18 -1 22 -23 22 -22 0 -26 -4 -23 -22z"/>
 <path d="M4183 3244 c-3 -8 -1 -20 5 -26 16 -16 47 -5 50 20 3 18 -1 22 -23 22 -14 0 -28 -7 -32 -16z"/>
 <path d="M2315 3133 c-195 -41 -325 -113 -470 -258 -67 -67 -116 -127 -147 -180 -141 -238 -167 -536 -72 -810 81 -231 318 -468 549 -549 274 -95 572 -69 810 72 108 64 263 219 327 327 141 238 167 536 72 810 -81 231 -318 468 -549 549 -162 56 -368 72 -520 39z m430 -84 c161 -49 284 -126 400 -251 149 -162 226 -359 226 -583 0 -164 -43 -318 -128 -460 -47 -77 -201 -231 -278 -278 -142 -85 -296 -128 -460 -128 -164 0 -318 43 -460 128 -77 47 -231 201 -278 278 -85 142 -128 296 -128 460 0 224 77 421 226 583 116 125 239 202 401 252 138 41 340 41 479 -1z"/>
 <path d="M1990 2720 c-19 -19 -20 -33 -20 -327 0 -170 4 -313 8 -319 10 -15 47 -34 67 -34 9 0 27 11 40 25 l25 24 0 301 0 301 -25 24 c-29 30 -68 32 -95 5z"/>
 <path d="M2230 2720 c-19 -19 -20 -33 -20 -500 0 -467 1 -481 20 -500 29 -29 74 -26 99 6 21 26 21 36 21 494 0 458 0 468 -21 494 -25 32 -70 35 -99 6z"/>
 <path d="M2701 2714 c-20 -25 -21 -39 -21 -246 l0 -219 25 -24 c13 -14 34 -25 45 -25 12 0 32 11 45 25 l25 24 0 226 c0 212 -1 226 -20 245 -29 29 -74 26 -99 -6z"/>
 <path d="M2955 2715 l-25 -24 0 -371 0 -371 25 -24 c29 -30 68 -32 95 -5 19 19 20 33 20 400 0 367 -1 381 -20 400 -27 27 -66 25 -95 -5z"/>
 </g>
<g id="layer103" fill="#df89f0" stroke="none">
 <path d="M960 3470 c0 -11 5 -20 10 -20 15 0 12 -38 -9 -107 l-19 -63 29 0 c21 0 32 6 39 23 l9 22 0 -22 c1 -19 7 -23 31 -23 17 0 30 3 30 6 0 10 -40 146 -52 177 -8 21 -17 27 -39 27 -22 0 -29 -5 -29 -20z"/>
 <path d="M4696 3481 c-4 -5 -3 -17 0 -26 5 -12 14 -14 35 -10 18 4 29 2 29 -4 0 -6 -13 -11 -30 -11 -35 0 -50 -23 -50 -75 0 -63 13 -75 80 -75 l60 0 0 83 c0 105 -13 127 -75 127 -24 0 -46 -4 -49 -9z m64 -126 c0 -19 -4 -35 -10 -35 -5 0 -10 16 -10 35 0 19 5 35 10 35 6 0 10 -16 10 -35z"/>
 <path d="M370 3325 l0 -105 58 0 c32 0 63 5 70 12 15 15 16 90 1 105 -7 7 -6 21 5 48 20 48 21 45 -15 45 -25 0 -33 -6 -47 -37 l-17 -38 -3 38 c-3 32 -7 37 -28 37 -24 0 -24 0 -24 -105z m80 -20 c15 -18 6 -45 -15 -45 -10 0 -15 10 -15 30 0 33 11 38 30 15z"/>
 <path d="M670 3320 l0 -110 25 0 c22 0 25 4 25 35 0 32 3 35 28 35 42 0 52 17 52 87 l0 63 -30 0 c-30 0 -30 0 -30 -56 0 -34 -4 -53 -10 -49 -5 3 -10 28 -10 56 0 46 -2 49 -25 49 l-25 0 0 -110z"/>
 <path d="M1247 3423 c-4 -3 -7 -30 -7 -60 0 -29 -4 -53 -10 -53 -5 0 -10 -7 -10 -15 0 -8 5 -15 10 -15 6 0 10 -9 10 -20 0 -15 7 -20 25 -20 18 0 25 5 25 20 0 11 5 20 10 20 6 0 10 7 10 15 0 8 -4 15 -10 15 -5 0 -10 18 -10 40 0 22 5 40 10 40 6 0 10 9 10 20 0 15 -7 20 -28 20 -16 0 -32 -3 -35 -7z"/>
 <path d="M1460 3320 l0 -110 30 0 c28 0 30 3 30 35 0 32 3 35 29 35 35 0 41 13 41 91 0 56 -1 59 -25 59 -23 0 -25 -3 -25 -49 0 -28 -4 -53 -10 -56 -6 -4 -10 15 -10 49 0 56 0 56 -30 56 l-30 0 0 -110z"/>
 <path d="M1750 3355 l0 -75 90 0 c104 0 110 5 110 94 0 55 0 56 -30 56 -28 0 -29 -1 -33 -57 l-3 -58 -2 58 c-2 56 -2 57 -32 57 -30 0 -30 -1 -30 -55 0 -30 -4 -55 -10 -55 -5 0 -10 25 -10 55 0 52 -1 55 -25 55 -24 0 -25 -2 -25 -75z"/>
 <path d="M2110 3355 c0 -73 1 -75 25 -75 24 0 25 2 25 75 0 73 -1 75 -25 75 -24 0 -25 -2 -25 -75z"/>
 <path d="M2330 3411 c-5 -11 -10 -36 -10 -56 0 -59 14 -75 65 -75 34 0 47 5 55 19 16 32 12 41 -20 41 -16 0 -30 -5 -30 -11 0 -5 -4 -7 -10 -4 -13 8 -13 52 -1 60 5 3 12 1 16 -5 8 -13 55 -13 55 1 0 32 -22 49 -65 49 -34 0 -47 -5 -55 -19z"/>
 <path d="M2810 3325 l0 -105 30 0 30 0 0 85 0 85 35 0 c28 0 35 4 35 20 0 18 -7 20 -65 20 l-65 0 0 -105z"/>
 <path d="M3106 3414 c-10 -9 -16 -33 -16 -59 0 -54 19 -75 69 -75 46 0 61 14 61 57 0 31 -2 33 -35 33 -19 0 -35 5 -35 11 0 7 11 9 29 6 29 -6 49 13 35 34 -9 15 -91 10 -108 -7z"/>
 <path d="M3382 3418 c-29 -29 -7 -78 35 -78 13 0 23 -4 23 -10 0 -5 -16 -10 -35 -10 -33 0 -35 -2 -25 -20 8 -15 21 -20 55 -20 54 0 65 16 65 94 l0 56 -53 0 c-29 0 -58 -5 -65 -12z"/>
 <path d="M3660 3355 l0 -75 45 0 c41 0 45 2 45 25 0 18 -5 25 -20 25 -17 0 -20 7 -20 50 0 47 -2 50 -25 50 -24 0 -25 -2 -25 -75z"/>
 <path d="M3890 3355 l0 -76 63 3 62 3 3 73 c3 71 3 72 -23 72 -24 0 -25 -3 -25 -55 0 -30 -4 -55 -10 -55 -5 0 -10 25 -10 55 0 54 0 55 -30 55 l-30 0 0 -75z"/>
 <path d="M4180 3355 l0 -75 30 0 30 0 0 75 0 75 -30 0 -30 0 0 -75z"/>
 <path d="M4400 3355 l0 -75 55 0 c65 0 75 12 75 94 0 56 0 56 -30 56 -30 0 -30 -1 -30 -55 0 -30 -4 -55 -10 -55 -5 0 -10 25 -10 55 0 52 -1 55 -25 55 -24 0 -25 -2 -25 -75z"/>
 <path d="M2112 3238 c2 -15 10 -23 23 -23 13 0 21 8 23 23 3 18 -1 22 -23 22 -22 0 -26 -4 -23 -22z"/>
 <path d="M4183 3244 c-3 -8 -1 -20 5 -26 16 -16 47 -5 50 20 3 18 -1 22 -23 22 -14 0 -28 -7 -32 -16z"/>
 <path d="M2230 2720 c-19 -19 -20 -33 -20 -500 0 -467 1 -481 20 -500 29 -29 74 -26 99 6 21 26 21 36 21 494 0 458 0 468 -21 494 -25 32 -70 35 -99 6z"/>
 </g>
<g id="layer104" fill="#ffffff" stroke="none">
 <path d="M960 3470 c0 -11 5 -20 10 -20 15 0 12 -38 -9 -107 l-19 -63 29 0 c21 0 32 6 39 23 l9 22 0 -22 c1 -19 7 -23 31 -23 17 0 30 3 30 6 0 10 -40 146 -52 177 -8 21 -17 27 -39 27 -22 0 -29 -5 -29 -20z"/>
 <path d="M4696 3481 c-4 -5 -3 -17 0 -26 5 -12 14 -14 35 -10 18 4 29 2 29 -4 0 -6 -13 -11 -30 -11 -35 0 -50 -23 -50 -75 0 -63 13 -75 80 -75 l60 0 0 83 c0 105 -13 127 -75 127 -24 0 -46 -4 -49 -9z m64 -126 c0 -19 -4 -35 -10 -35 -5 0 -10 16 -10 35 0 19 5 35 10 35 6 0 10 -16 10 -35z"/>
 <path d="M370 3325 l0 -105 58 0 c32 0 63 5 70 12 15 15 16 90 1 105 -7 7 -6 21 5 48 20 48 21 45 -15 45 -25 0 -33 -6 -47 -37 l-17 -38 -3 38 c-3 32 -7 37 -28 37 -24 0 -24 0 -24 -105z m80 -20 c15 -18 6 -45 -15 -45 -10 0 -15 10 -15 30 0 33 11 38 30 15z"/>
 <path d="M670 3320 l0 -110 25 0 c22 0 25 4 25 35 0 32 3 35 28 35 42 0 52 17 52 87 l0 63 -30 0 c-30 0 -30 0 -30 -56 0 -34 -4 -53 -10 -49 -5 3 -10 28 -10 56 0 46 -2 49 -25 49 l-25 0 0 -110z"/>
 <path d="M1247 3423 c-4 -3 -7 -30 -7 -60 0 -29 -4 -53 -10 -53 -5 0 -10 -7 -10 -15 0 -8 5 -15 10 -15 6 0 10 -9 10 -20 0 -15 7 -20 25 -20 18 0 25 5 25 20 0 11 5 20 10 20 6 0 10 7 10 15 0 8 -4 15 -10 15 -5 0 -10 18 -10 40 0 22 5 40 10 40 6 0 10 9 10 20 0 15 -7 20 -28 20 -16 0 -32 -3 -35 -7z"/>
 <path d="M1460 3320 l0 -110 30 0 c28 0 30 3 30 35 0 32 3 35 29 35 35 0 41 13 41 91 0 56 -1 59 -25 59 -23 0 -25 -3 -25 -49 0 -28 -4 -53 -10 -56 -6 -4 -10 15 -10 49 0 56 0 56 -30 56 l-30 0 0 -110z"/>
 <path d="M1750 3355 l0 -75 90 0 c104 0 110 5 110 94 0 55 0 56 -30 56 -28 0 -29 -1 -33 -57 l-3 -58 -2 58 c-2 56 -2 57 -32 57 -30 0 -30 -1 -30 -55 0 -30 -4 -55 -10 -55 -5 0 -10 25 -10 55 0 52 -1 55 -25 55 -24 0 -25 -2 -25 -75z"/>
 <path d="M2110 3355 c0 -73 1 -75 25 -75 24 0 25 2 25 75 0 73 -1 75 -25 75 -24 0 -25 -2 -25 -75z"/>
 <path d="M2330 3411 c-5 -11 -10 -36 -10 -56 0 -59 14 -75 65 -75 34 0 47 5 55 19 16 32 12 41 -20 41 -16 0 -30 -5 -30 -11 0 -5 -4 -7 -10 -4 -13 8 -13 52 -1 60 5 3 12 1 16 -5 8 -13 55 -13 55 1 0 32 -22 49 -65 49 -34 0 -47 -5 -55 -19z"/>
 <path d="M2810 3325 l0 -105 30 0 30 0 0 85 0 85 35 0 c28 0 35 4 35 20 0 18 -7 20 -65 20 l-65 0 0 -105z"/>
 <path d="M3106 3414 c-10 -9 -16 -33 -16 -59 0 -54 19 -75 69 -75 46 0 61 14 61 57 0 31 -2 33 -35 33 -19 0 -35 5 -35 11 0 7 11 9 29 6 29 -6 49 13 35 34 -9 15 -91 10 -108 -7z"/>
 <path d="M3382 3418 c-29 -29 -7 -78 35 -78 13 0 23 -4 23 -10 0 -5 -16 -10 -35 -10 -33 0 -35 -2 -25 -20 8 -15 21 -20 55 -20 54 0 65 16 65 94 l0 56 -53 0 c-29 0 -58 -5 -65 -12z"/>
 <path d="M3660 3355 l0 -75 45 0 c41 0 45 2 45 25 0 18 -5 25 -20 25 -17 0 -20 7 -20 50 0 47 -2 50 -25 50 -24 0 -25 -2 -25 -75z"/>
 <path d="M3890 3355 l0 -76 63 3 62 3 3 73 c3 71 3 72 -23 72 -24 0 -25 -3 -25 -55 0 -30 -4 -55 -10 -55 -5 0 -10 25 -10 55 0 54 0 55 -30 55 l-30 0 0 -75z"/>
 <path d="M4180 3355 l0 -75 30 0 30 0 0 75 0 75 -30 0 -30 0 0 -75z"/>
 <path d="M4400 3355 l0 -75 55 0 c65 0 75 12 75 94 0 56 0 56 -30 56 -30 0 -30 -1 -30 -55 0 -30 -4 -55 -10 -55 -5 0 -10 25 -10 55 0 52 -1 55 -25 55 -24 0 -25 -2 -25 -75z"/>
 <path d="M2112 3238 c2 -15 10 -23 23 -23 13 0 21 8 23 23 3 18 -1 22 -23 22 -22 0 -26 -4 -23 -22z"/>
 <path d="M4183 3244 c-3 -8 -1 -20 5 -26 16 -16 47 -5 50 20 3 18 -1 22 -23 22 -14 0 -28 -7 -32 -16z"/>
 </g>

</svg>