<!DOCTYPE svg PUBLIC "-//W3C//DTD SVG 20010904//EN" "http://www.w3.org/TR/2001/REC-SVG-20010904/DTD/svg10.dtd">
<svg version="1.0" xmlns="http://www.w3.org/2000/svg" width="193px" height="194px" viewBox="0 0 1930 1940" preserveAspectRatio="xMidYMid meet">
<g id="layer101" fill="#8e73c8" stroke="none">
 <path d="M775 1903 c-195 -41 -325 -113 -470 -258 -110 -110 -178 -212 -219 -330 -95 -274 -69 -572 72 -810 64 -108 219 -263 327 -327 290 -171 670 -171 960 0 108 64 263 219 327 327 141 238 167 536 72 810 -81 231 -318 468 -549 549 -162 56 -368 72 -520 39z m430 -84 c161 -49 284 -126 400 -251 149 -162 226 -359 226 -583 0 -164 -43 -318 -128 -460 -47 -77 -201 -231 -278 -278 -142 -85 -296 -128 -460 -128 -164 0 -318 43 -460 128 -77 47 -231 201 -278 278 -85 142 -128 296 -128 460 0 224 77 421 226 583 116 125 239 202 401 252 138 41 340 41 479 -1z"/>
 <path d="M450 1490 c-19 -19 -20 -33 -20 -327 0 -170 4 -313 8 -319 10 -15 47 -34 67 -34 9 0 27 11 40 25 l25 24 0 301 0 301 -25 24 c-29 30 -68 32 -95 5z"/>
 <path d="M690 1490 c-19 -19 -20 -33 -20 -500 0 -467 1 -481 20 -500 29 -29 74 -26 99 6 21 26 21 36 21 494 0 458 0 468 -21 494 -25 32 -70 35 -99 6z"/>
 <path d="M931 1484 c-20 -26 -21 -38 -21 -396 l0 -369 25 -24 c31 -32 59 -32 90 0 l25 24 0 369 c0 358 -1 370 -21 396 -13 17 -30 26 -49 26 -19 0 -36 -9 -49 -26z"/>
 <path d="M1161 1484 c-20 -25 -21 -39 -21 -246 l0 -219 25 -24 c31 -32 59 -32 90 0 l25 24 0 226 c0 212 -1 226 -20 245 -29 29 -74 26 -99 -6z"/>
 <path d="M1415 1485 l-25 -24 0 -371 0 -371 25 -24 c29 -30 68 -32 95 -5 19 19 20 33 20 400 0 367 -1 381 -20 400 -27 27 -66 25 -95 -5z"/>
 </g>
<g id="layer102" fill="#71ceff" stroke="none">
 <path d="M775 1903 c-195 -41 -325 -113 -470 -258 -110 -110 -178 -212 -219 -330 -95 -274 -69 -572 72 -810 64 -108 219 -263 327 -327 290 -171 670 -171 960 0 108 64 263 219 327 327 141 238 167 536 72 810 -81 231 -318 468 -549 549 -162 56 -368 72 -520 39z m430 -84 c161 -49 284 -126 400 -251 149 -162 226 -359 226 -583 0 -164 -43 -318 -128 -460 -47 -77 -201 -231 -278 -278 -142 -85 -296 -128 -460 -128 -164 0 -318 43 -460 128 -77 47 -231 201 -278 278 -85 142 -128 296 -128 460 0 224 77 421 226 583 116 125 239 202 401 252 138 41 340 41 479 -1z"/>
 <path d="M450 1490 c-19 -19 -20 -33 -20 -327 0 -170 4 -313 8 -319 10 -15 47 -34 67 -34 9 0 27 11 40 25 l25 24 0 301 0 301 -25 24 c-29 30 -68 32 -95 5z"/>
 <path d="M690 1490 c-19 -19 -20 -33 -20 -500 0 -467 1 -481 20 -500 29 -29 74 -26 99 6 21 26 21 36 21 494 0 458 0 468 -21 494 -25 32 -70 35 -99 6z"/>
 <path d="M1161 1484 c-20 -25 -21 -39 -21 -246 l0 -219 25 -24 c31 -32 59 -32 90 0 l25 24 0 226 c0 212 -1 226 -20 245 -29 29 -74 26 -99 -6z"/>
 <path d="M1415 1485 l-25 -24 0 -371 0 -371 25 -24 c29 -30 68 -32 95 -5 19 19 20 33 20 400 0 367 -1 381 -20 400 -27 27 -66 25 -95 -5z"/>
 </g>
<g id="layer103" fill="#df89f0" stroke="none">
 <path d="M690 1490 c-19 -19 -20 -33 -20 -500 0 -467 1 -481 20 -500 29 -29 74 -26 99 6 21 26 21 36 21 494 0 458 0 468 -21 494 -25 32 -70 35 -99 6z"/>
 </g>

</svg>